<?xml version="1.0" encoding="UTF-8"?>
<svg width="13px" height="13px" viewBox="0 0 13 13" version="1.1" xmlns="http://www.w3.org/2000/svg" xmlns:xlink="http://www.w3.org/1999/xlink">
    <title>􀆄</title>
    <g id="JobBoard" stroke="none" stroke-width="1" fill="none" fill-rule="evenodd">
        <g id="Home" transform="translate(-275.000000, -28.000000)" fill="#FFFFFF" fill-rule="nonzero">
            <path d="M276.047127,40.9742256 C276.190318,40.9398598 276.316326,40.8711281 276.425151,40.7680306 L281.507074,35.6865991 L286.588849,40.7680306 C286.691946,40.8711281 286.815091,40.9398598 286.958282,40.9742256 C287.101473,41.0085915 287.244664,41.0085915 287.387855,40.9742256 C287.531046,40.9398598 287.657054,40.8682643 287.765879,40.7594391 C287.874704,40.6506139 287.9463,40.5246059 287.980665,40.3814149 C288.015031,40.2382239 288.015031,40.0950329 287.980665,39.9518418 C287.9463,39.8086508 287.877568,39.6855066 287.77447,39.5824091 L282.693186,34.5004867 L287.77447,29.4187116 C287.877568,29.315614 287.9463,29.1924698 287.980665,29.0492788 C288.015031,28.9060878 288.015031,28.7614649 287.980665,28.61541 C287.9463,28.4693552 287.874704,28.344779 287.765879,28.2416815 C287.657054,28.1328563 287.529614,28.0612608 287.383559,28.026895 C287.237504,27.9925292 287.094313,27.9925292 286.953986,28.026895 C286.813659,28.0612608 286.691946,28.1299925 286.588849,28.2330901 L281.507074,33.3143742 L276.425151,28.2330901 C276.316326,28.1299925 276.190318,28.0612608 276.047127,28.026895 C275.903936,27.9925292 275.760745,27.9910973 275.617554,28.0225993 C275.474363,28.0541013 275.348355,28.1271287 275.23953,28.2416815 C275.136432,28.3505067 275.067701,28.4765148 275.033335,28.6197058 C274.998969,28.7628968 274.998969,28.9060878 275.033335,29.0492788 C275.067701,29.1924698 275.136432,29.315614 275.23953,29.4187116 L280.320961,34.5004867 L275.23953,39.5824091 C275.136432,39.6855066 275.066269,39.8086508 275.029039,39.9518418 C274.991809,40.0950329 274.990378,40.2396558 275.024743,40.3857106 C275.059109,40.5317654 275.130705,40.6563416 275.23953,40.7594391 C275.348355,40.8682643 275.474363,40.9398598 275.617554,40.9742256 C275.760745,41.0085915 275.903936,41.0085915 276.047127,40.9742256 Z" id="􀆄"></path>
        </g>
    </g>
</svg>