<?xml version="1.0" encoding="UTF-8"?>
<svg width="16px" height="16px" viewBox="0 0 16 16" version="1.1" xmlns="http://www.w3.org/2000/svg" xmlns:xlink="http://www.w3.org/1999/xlink">
    <title>􀈠</title>
    <g id="JobBoard" stroke="none" stroke-width="1" fill="none" fill-rule="evenodd">
        <g id="Detalle-oferta-(vista-usuario)" transform="translate(-1012.000000, -178.000000)" fill="#FFFFFF" fill-rule="nonzero">
            <g id="Group-8" transform="translate(250.000000, 130.000000)">
                <g id="Group-14" transform="translate(27.000000, 36.000000)">
                    <g id="Group-11" transform="translate(720.000000, 0.000000)">
                        <g id="Group-9" transform="translate(14.000000, 9.000000)">
                            <path d="M10.4296875,18.8203125 C10.7057292,18.8203125 10.9427083,18.7148438 11.140625,18.5039062 C11.3385417,18.2929688 11.5052083,18.0078125 11.640625,17.6484375 L16.5078125,4.9453125 C16.5755208,4.77864583 16.6263021,4.61979167 16.6601562,4.46875 C16.6940104,4.31770833 16.7109375,4.18229167 16.7109375,4.0625 C16.7109375,3.80729167 16.6367188,3.60677083 16.4882812,3.4609375 C16.3398438,3.31510417 16.1380208,3.2421875 15.8828125,3.2421875 C15.7578125,3.2421875 15.6223958,3.25911458 15.4765625,3.29296875 C15.3307292,3.32682292 15.1744792,3.375 15.0078125,3.4375 L2.2421875,8.3359375 C1.92447917,8.45572917 1.66015625,8.61328125 1.44921875,8.80859375 C1.23828125,9.00390625 1.1328125,9.2421875 1.1328125,9.5234375 C1.1328125,9.8671875 1.25,10.1184896 1.484375,10.2773438 C1.71875,10.4361979 2.015625,10.5703125 2.375,10.6796875 L6.2734375,11.875 C6.51822917,11.9479167 6.72395833,11.9752604 6.890625,11.9570312 C7.05729167,11.9388021 7.2265625,11.8515625 7.3984375,11.6953125 L15.5703125,4.0859375 C15.6171875,4.04427083 15.6679688,4.02473958 15.7226562,4.02734375 C15.7773438,4.02994792 15.8255208,4.046875 15.8671875,4.078125 C15.9088542,4.11979167 15.9296875,4.16796875 15.9296875,4.22265625 C15.9296875,4.27734375 15.9088542,4.328125 15.8671875,4.375 L8.28125,12.5703125 C8.13020833,12.7369792 8.04296875,12.9036458 8.01953125,13.0703125 C7.99609375,13.2369792 8.0234375,13.4453125 8.1015625,13.6953125 L9.25,17.515625 C9.36979167,17.890625 9.50911458,18.2018229 9.66796875,18.4492188 C9.82682292,18.6966146 10.0807292,18.8203125 10.4296875,18.8203125 Z" id="􀈠"></path>
                        </g>
                    </g>
                </g>
            </g>
        </g>
    </g>
</svg>